<svg width="26" height="26" viewBox="0 0 26 26" fill="none" xmlns="http://www.w3.org/2000/svg">
<path d="M9 1H2.33333C1.59695 1 1 1.59695 1 2.33333V11.6667C1 12.403 1.59695 13 2.33333 13H9C9.73638 13 10.3333 12.403 10.3333 11.6667V2.33333C10.3333 1.59695 9.73638 1 9 1Z" stroke="currentColor" stroke-width="2" stroke-linecap="round" stroke-linejoin="round"/>
<path d="M23.6665 1H16.9998C16.2635 1 15.6665 1.59695 15.6665 2.33333V6.33333C15.6665 7.06971 16.2635 7.66667 16.9998 7.66667H23.6665C24.4029 7.66667 24.9998 7.06971 24.9998 6.33333V2.33333C24.9998 1.59695 24.4029 1 23.6665 1Z" stroke="currentColor" stroke-width="2" stroke-linecap="round" stroke-linejoin="round"/>
<path d="M23.6665 13H16.9998C16.2635 13 15.6665 13.597 15.6665 14.3333V23.6667C15.6665 24.403 16.2635 25 16.9998 25H23.6665C24.4029 25 24.9998 24.403 24.9998 23.6667V14.3333C24.9998 13.597 24.4029 13 23.6665 13Z" stroke="currentColor" stroke-width="2" stroke-linecap="round" stroke-linejoin="round"/>
<path d="M9 18.3333H2.33333C1.59695 18.3333 1 18.9303 1 19.6667V23.6667C1 24.4031 1.59695 25 2.33333 25H9C9.73638 25 10.3333 24.4031 10.3333 23.6667V19.6667C10.3333 18.9303 9.73638 18.3333 9 18.3333Z" stroke="currentColor" stroke-width="2" stroke-linecap="round" stroke-linejoin="round"/>
</svg>
