<svg width="26" height="26" viewBox="0 0 26 26" fill="none" xmlns="http://www.w3.org/2000/svg">
<path d="M1.68043 24.3196L3.34858 22.6514M22.6514 3.34858L24.3196 1.68043M10.1403 15.8597L15.8597 10.1403M19.6678 13.9151C20.1148 14.3621 20.7211 14.6132 21.3532 14.6132C21.9854 14.6132 22.5917 14.3621 23.0387 13.9151C23.4857 13.4681 23.7368 12.8618 23.7368 12.2297C23.7368 11.5975 23.4857 10.9913 23.0387 10.5442L20.932 8.43881C21.379 8.88565 21.9852 9.13662 22.6173 9.13651C22.9302 9.13646 23.2401 9.07476 23.5292 8.95495C23.8184 8.83513 24.081 8.65955 24.3023 8.43821C24.5236 8.21688 24.699 7.95413 24.8188 7.66498C24.9385 7.37582 25.0001 7.06592 25 6.75296C24.9999 6.44001 24.9382 6.13012 24.8184 5.84101C24.6986 5.5519 24.523 5.28921 24.3017 5.06796L20.932 1.6983C20.4852 1.2513 19.8791 1.00011 19.247 1C18.615 0.999888 18.0088 1.25086 17.5618 1.6977C17.1148 2.14455 16.8636 2.75066 16.8635 3.38271C16.8634 4.01475 17.1143 4.62096 17.5612 5.06796L15.4558 2.96133C15.2344 2.73999 14.9717 2.56442 14.6825 2.44464C14.3933 2.32485 14.0833 2.2632 13.7703 2.2632C13.4573 2.2632 13.1474 2.32485 12.8582 2.44464C12.569 2.56442 12.3062 2.73999 12.0849 2.96133C11.8636 3.18266 11.688 3.44542 11.5682 3.73461C11.4484 4.02379 11.3868 4.33374 11.3868 4.64675C11.3868 4.95976 11.4484 5.26971 11.5682 5.5589C11.688 5.84808 11.8636 6.11084 12.0849 6.33218L19.6678 13.9151ZM5.06796 24.3017C5.5148 24.7487 6.12092 24.9999 6.75296 25C7.06592 25.0001 7.37582 24.9385 7.66498 24.8188C7.95413 24.699 8.21688 24.5236 8.43821 24.3023C8.65955 24.081 8.83513 23.8184 8.95495 23.5292C9.07476 23.2401 9.13646 22.9302 9.13651 22.6173C9.13657 22.3043 9.07498 21.9944 8.95527 21.7053C8.83556 21.4161 8.66006 21.1534 8.43881 20.932L10.5442 23.0387C10.9913 23.4857 11.5975 23.7368 12.2297 23.7368C12.8618 23.7368 13.4681 23.4857 13.9151 23.0387C14.3621 22.5917 14.6132 21.9854 14.6132 21.3532C14.6132 20.7211 14.3621 20.1148 13.9151 19.6678L6.33218 12.0849C6.11084 11.8636 5.84808 11.688 5.5589 11.5682C5.26971 11.4484 4.95976 11.3868 4.64675 11.3868C4.33374 11.3868 4.02379 11.4484 3.73461 11.5682C3.44542 11.688 3.18266 11.8636 2.96133 12.0849C2.73999 12.3062 2.56442 12.569 2.44464 12.8582C2.32485 13.1474 2.2632 13.4573 2.2632 13.7703C2.2632 14.0833 2.32485 14.3933 2.44464 14.6825C2.56442 14.9717 2.73999 15.2344 2.96133 15.4558L5.06796 17.5612C4.62096 17.1143 4.01475 16.8634 3.38271 16.8635C2.75066 16.8636 2.14455 17.1148 1.6977 17.5618C1.25086 18.0088 0.999888 18.615 1 19.247C1.00011 19.8791 1.2513 20.4852 1.6983 20.932L5.06796 24.3017Z" stroke="currentColor" stroke-width="2" stroke-linecap="round" stroke-linejoin="round"/>
</svg>
