<svg width="24" height="26" viewBox="0 0 24 26" fill="none" xmlns="http://www.w3.org/2000/svg">
<path d="M11.7998 14.2003V1L21.4 5.80011L11.7998 10.6002" stroke='currentColor' stroke-width="2" stroke-linecap="round" stroke-linejoin="round"/>
<path d="M22.0733 10.8666C22.7119 12.8348 22.7716 14.9451 22.2454 16.9463C21.7192 18.9475 20.6292 20.7554 19.1051 22.1549C17.581 23.5544 15.6869 24.4867 13.6482 24.8407C11.6095 25.1948 9.51198 24.9557 7.60524 24.152C5.69849 23.3483 4.06275 22.0137 2.89264 20.3071C1.72253 18.6005 1.06731 16.5937 1.00491 14.5254C0.942519 12.4572 1.47559 10.4145 2.5407 8.64045C3.6058 6.86641 5.15812 5.43569 7.01295 4.51849" stroke='currentColor' stroke-width="2" stroke-linecap="round" stroke-linejoin="round"/>
<path d="M7.0022 10.5966C6.40088 11.3971 6.0094 12.3353 5.86343 13.3257C5.71747 14.3162 5.82166 15.3274 6.16651 16.2673C6.51136 17.2072 7.08591 18.0458 7.83782 18.7068C8.58972 19.3679 9.49508 19.8302 10.4714 20.0518C11.4477 20.2734 12.464 20.2472 13.4276 19.9755C14.3912 19.7039 15.2715 19.1954 15.9883 18.4965C16.7051 17.7976 17.2356 16.9304 17.5315 15.974C17.8274 15.0175 17.8793 14.0023 17.6824 13.0207" stroke='currentColor' stroke-width="2" stroke-linecap="round" stroke-linejoin="round"/>
</svg>
