<svg width="24" height="26" viewBox="0 0 24 26" fill="none" xmlns="http://www.w3.org/2000/svg">
<path d="M12.5 2.5V2.515M12.5 13V13.015M12.5 23.5V23.515M12.5 4C12.1022 4 11.7206 3.84196 11.4393 3.56066C11.158 3.27936 11 2.89782 11 2.5C11 2.10218 11.158 1.72064 11.4393 1.43934C11.7206 1.15804 12.1022 1 12.5 1C12.8978 1 13.2794 1.15804 13.5607 1.43934C13.842 1.72064 14 2.10218 14 2.5C14 2.89782 13.842 3.27936 13.5607 3.56066C13.2794 3.84196 12.8978 4 12.5 4ZM12.5 14.5C12.1022 14.5 11.7206 14.342 11.4393 14.0607C11.158 13.7794 11 13.3978 11 13C11 12.6022 11.158 12.2206 11.4393 11.9393C11.7206 11.658 12.1022 11.5 12.5 11.5C12.8978 11.5 13.2794 11.658 13.5607 11.9393C13.842 12.2206 14 12.6022 14 13C14 13.3978 13.842 13.7794 13.5607 14.0607C13.2794 14.342 12.8978 14.5 12.5 14.5ZM12.5 25C12.1022 25 11.7206 24.842 11.4393 24.5607C11.158 24.2794 11 23.8978 11 23.5C11 23.1022 11.158 22.7206 11.4393 22.4393C11.7206 22.158 12.1022 22 12.5 22C12.8978 22 13.2794 22.158 13.5607 22.4393C13.842 22.7206 14 23.1022 14 23.5C14 23.8978 13.842 24.2794 13.5607 24.5607C13.2794 24.842 12.8978 25 12.5 25Z" stroke="currentColor" stroke-width="2" stroke-linecap="round" stroke-linejoin="round"/>
</svg>
