<svg width="26" height="26" viewBox="0 0 26 26" fill="none" xmlns="http://www.w3.org/2000/svg">
<path d="M11.6667 3.66667C11.6667 5.14 9.876 6.33333 7.66667 6.33333C5.45733 6.33333 3.66667 5.14 3.66667 3.66667C3.66667 2.19333 5.45733 1 7.66667 1C9.876 1 11.6667 2.19333 11.6667 3.66667ZM11.6667 3.66667H23.6667M2.33333 11.6667H23.6667C24.0203 11.6667 24.3594 11.8071 24.6095 12.0572C24.8595 12.3072 25 12.6464 25 13V13.6667C25 15.6667 21.644 21.0973 19.6667 22.3333V23.6667C19.6667 24.0203 19.5262 24.3594 19.2761 24.6095C19.0261 24.8595 18.687 25 18.3333 25H7.66667C7.31304 25 6.97391 24.8595 6.72386 24.6095C6.47381 24.3594 6.33333 24.0203 6.33333 23.6667V22.3333C4.084 20.928 1 15.6667 1 13.6667V13C1 12.6464 1.14048 12.3072 1.39052 12.0572C1.64057 11.8071 1.97971 11.6667 2.33333 11.6667Z" stroke="currentColor" stroke-width="2" stroke-linecap="round" stroke-linejoin="round"/>
</svg>
