<svg width="24" height="26" viewBox="0 0 24 26" fill="none" xmlns="http://www.w3.org/2000/svg">
<path d="M8.91996 2.25333C9.03516 1.53067 9.63676 1 10.3408 1H13.6598C14.3638 1 14.9654 1.53067 15.0806 2.25333L15.3532 3.96133C15.4339 4.46 15.7539 4.876 16.1788 5.12133C16.2736 5.17467 16.367 5.232 16.4604 5.29067C16.8752 5.552 17.382 5.63333 17.8364 5.456L19.3942 4.848C19.7134 4.72294 20.0649 4.71997 20.386 4.83962C20.7072 4.95926 20.9771 5.19375 21.1478 5.50133L22.8067 8.49733C22.977 8.80494 23.037 9.16551 22.9761 9.51489C22.9151 9.86427 22.7372 10.1798 22.4739 10.4053L21.19 11.508C20.815 11.828 20.6294 12.3253 20.6384 12.8307C20.6404 12.944 20.6404 13.0573 20.6384 13.1707C20.6294 13.6747 20.815 14.1707 21.1888 14.4907L22.4752 15.5947C23.0179 16.0613 23.1587 16.8667 22.808 17.5013L21.1465 20.4973C20.9761 20.8048 20.7064 21.0394 20.3856 21.1593C20.0647 21.2792 19.7134 21.2766 19.3942 21.152L17.8364 20.544C17.382 20.3667 16.8764 20.448 16.4592 20.7093C16.3664 20.7681 16.2725 20.825 16.1776 20.88C15.7539 21.124 15.4339 21.54 15.3532 22.0387L15.0806 23.7453C14.9654 24.4693 14.3638 25 13.6598 25H10.3395C9.63548 25 9.03388 24.4693 8.91868 23.7467L8.64604 22.0387C8.56668 21.54 8.24668 21.124 7.82172 20.8787C7.7268 20.8241 7.63292 20.7677 7.54012 20.7093C7.12412 20.448 6.61852 20.3667 6.16284 20.544L4.60508 21.152C4.28601 21.2767 3.93483 21.2795 3.61397 21.1599C3.29312 21.0402 3.0234 20.8059 2.85276 20.4987L1.1926 17.5027C1.02229 17.1951 0.962259 16.8345 1.0232 16.4851C1.08414 16.1357 1.26209 15.8202 1.5254 15.5947L2.81052 14.492C3.18428 14.172 3.36988 13.6747 3.36092 13.1693C3.35892 13.056 3.35892 12.9427 3.36092 12.8293C3.36988 12.3253 3.18428 11.8293 2.81052 11.5093L1.5254 10.4053C1.26241 10.1799 1.08466 9.86458 1.02373 9.5155C0.9628 9.16642 1.02263 8.80614 1.1926 8.49867L2.85276 5.50267C3.02324 5.19485 3.29309 4.96008 3.61425 4.84018C3.9354 4.72029 4.28698 4.72306 4.60636 4.848L6.16284 5.456C6.61852 5.63333 7.12412 5.552 7.54012 5.29067C7.63228 5.232 7.727 5.17467 7.82172 5.12C8.24668 4.876 8.56668 4.46 8.64604 3.96133L8.91996 2.25333Z" stroke="currentColor" stroke-width="2" stroke-linecap="round" stroke-linejoin="round"/>
<path d="M15.8397 13C15.8397 14.0609 15.4351 15.0783 14.715 15.8284C13.9948 16.5786 13.0181 17 11.9997 17C10.9812 17 10.0045 16.5786 9.28438 15.8284C8.56424 15.0783 8.15967 14.0609 8.15967 13C8.15967 11.9391 8.56424 10.9217 9.28438 10.1716C10.0045 9.42143 10.9812 9 11.9997 9C13.0181 9 13.9948 9.42143 14.715 10.1716C15.4351 10.9217 15.8397 11.9391 15.8397 13Z" stroke="currentColor" stroke-width="2" stroke-linecap="round" stroke-linejoin="round"/>
</svg>
