<svg width="24" height="26" viewBox="0 0 24 26" fill="none" xmlns="http://www.w3.org/2000/svg">
<path d="M20.2 5.8V22.6C20.2 23.2365 19.9471 23.847 19.4971 24.2971C19.047 24.7471 18.4365 25 17.8 25H5.8C5.16348 25 4.55303 24.7471 4.10294 24.2971C3.65286 23.847 3.4 23.2365 3.4 22.6V5.8M1 5.8H22.6M7 5.8V3.4C7 2.76348 7.25286 2.15303 7.70294 1.70294C8.15303 1.25286 8.76348 1 9.4 1H14.2C14.8365 1 15.447 1.25286 15.8971 1.70294C16.3471 2.15303 16.6 2.76348 16.6 3.4V5.8" stroke="currentColor" stroke-width="2" stroke-linecap="round" stroke-linejoin="round"/>
</svg>
