<svg width="512" height="512" viewBox="0 0 512 512" fill="none" xmlns="http://www.w3.org/2000/svg">
<g clip-path="url(#clip0_108_109)">
<mask id="path-1-inside-1_108_109" fill="white">
<path d="M256.157 584.742L252.704 583.312H256.749L256.157 584.742ZM315.921 440.459L316.064 440.806H196.205L196.349 440.46L40 63H159.572L256.134 296.123L352.698 63H472.271L315.921 440.459Z"/>
</mask>
<path d="M256.157 584.742L252.704 583.312H256.749L256.157 584.742ZM315.921 440.459L316.064 440.806H196.205L196.349 440.46L40 63H159.572L256.134 296.123L352.698 63H472.271L315.921 440.459Z" fill="#ECC61D"/>
<path d="M256.157 584.742L254.243 589.361L258.865 591.276L260.778 586.653L256.157 584.742ZM252.704 583.312V578.312L250.79 587.931L252.704 583.312ZM256.749 583.312L261.369 585.223L264.228 578.312H256.749V583.312ZM315.921 440.459L311.302 438.546L310.509 440.459L311.301 442.372L315.921 440.459ZM316.064 440.806V445.806H323.547L320.684 438.893L316.064 440.806ZM196.205 440.806L191.587 438.888L188.715 445.806H196.205V440.806ZM196.349 440.46L200.966 442.377L201.762 440.462L200.968 438.547L196.349 440.46ZM40 63V58H32.517L35.3806 64.9134L40 63ZM159.572 63L164.192 61.0866L162.913 58H159.572V63ZM256.134 296.123L251.514 298.036L256.134 309.189L260.753 298.036L256.134 296.123ZM352.698 63V58H349.357L348.079 61.0866L352.698 63ZM472.271 63L476.89 64.9134L479.754 58H472.271V63ZM256.157 584.742L258.071 580.123L254.618 578.692L252.704 583.312L250.79 587.931L254.243 589.361L256.157 584.742ZM252.704 583.312V588.312H256.749V583.312V578.312H252.704V583.312ZM256.749 583.312L252.129 581.4L251.537 582.831L256.157 584.742L260.778 586.653L261.369 585.223L256.749 583.312ZM315.921 440.459L311.301 442.372L311.445 442.719L316.064 440.806L320.684 438.893L320.54 438.546L315.921 440.459ZM316.064 440.806V435.806H196.205V440.806V445.806H316.064V440.806ZM196.205 440.806L200.823 442.723L200.966 442.377L196.349 440.46L191.731 438.542L191.587 438.888L196.205 440.806ZM196.349 440.46L200.968 438.547L44.6194 61.0866L40 63L35.3806 64.9134L191.729 442.373L196.349 440.46ZM40 63V68H159.572V63V58H40V63ZM159.572 63L154.953 64.9134L251.514 298.036L256.134 296.123L260.753 294.21L164.192 61.0866L159.572 63ZM256.134 296.123L260.753 298.036L357.318 64.9134L352.698 63L348.079 61.0866L251.514 294.21L256.134 296.123ZM352.698 63V68H472.271V63V58H352.698V63ZM472.271 63L467.651 61.0866L311.302 438.546L315.921 440.459L320.54 442.372L476.89 64.9134L472.271 63Z" fill="#481E14" mask="url(#path-1-inside-1_108_109)"/>
<path d="M315.305 440.253H293.097L137.695 63H159.325L304.219 414.742L449.829 63H471.475L315.305 440.253Z" fill="#481E14"/>
</g>
<defs>
<clipPath id="clip0_108_109">
<rect width="512" height="512" fill="white"/>
</clipPath>
</defs>
</svg>
